# Blender 3.5.1
# www.blender.org
o Cube
v -0.588466 -1.000000 0.626688
v -0.479228 1.683213 0.442368
v -0.582353 -1.000000 -0.518943
v -0.423695 1.677179 -0.280986
v 0.726965 -1.000000 0.637821
v 0.234110 1.660197 0.267153
v 0.595002 -1.000000 -0.504613
v 0.210510 1.631795 -0.345299
vn -0.9982 0.0596 -0.0053
vn 0.0121 0.0622 -0.9980
vn 0.9797 0.1657 -0.1132
vn -0.0084 0.1365 0.9906
vn -0.0000 -1.0000 -0.0000
vn 0.0664 0.9966 -0.0488
vn -0.9964 0.0353 -0.0768
vn -0.0938 0.0937 -0.9912
vn 0.9881 0.1471 -0.0449
vn 0.2399 0.0568 0.9691
vn 0.0308 0.9995 -0.0060
vt 0.375000 0.000000
vt 0.375000 1.000000
vt 0.125000 0.750000
vt 0.625000 0.000000
vt 0.625000 1.000000
vt 0.875000 0.750000
vt 0.125000 0.500000
vt 0.375000 0.250000
vt 0.625000 0.250000
vt 0.875000 0.500000
vt 0.375000 0.750000
vt 0.625000 0.750000
vt 0.375000 0.500000
vt 0.625000 0.500000
s 0
f 1/1/1 4/9/1 3/8/1
f 3/8/2 8/14/2 7/13/2
f 7/13/3 6/12/3 5/11/3
f 6/12/4 1/2/4 5/11/4
f 7/13/5 1/3/5 3/7/5
f 4/10/6 6/12/6 8/14/6
f 1/1/7 2/4/7 4/9/7
f 3/8/8 4/9/8 8/14/8
f 7/13/9 8/14/9 6/12/9
f 6/12/10 2/5/10 1/2/10
f 7/13/5 5/11/5 1/3/5
f 4/10/11 2/6/11 6/12/11
