# Blender 3.5.1
# www.blender.org
o Sphere
v 0.072802 0.488075 -0.899583
v 0.166185 -0.267971 -0.964135
v 0.162206 0.890558 -0.451617
v 0.468997 0.206091 -0.892785
v 0.650062 -0.098974 -0.765762
v 0.185484 -0.715535 -0.715622
v 0.561432 -0.494810 -0.698921
v -0.169626 1.003662 -0.031699
v 0.476946 0.745623 -0.521901
v 0.796887 0.507283 -0.381369
v 0.954427 -0.093761 -0.388342
v 0.989805 0.108869 -0.182653
v 0.308564 -0.949838 -0.207093
v 0.681847 0.752886 0.053295
v 0.906214 0.421450 0.190622
v 0.968669 -0.280295 0.225921
v 0.701623 -0.750170 -0.074620
v 0.304642 0.967173 0.007039
v 0.634862 0.479008 0.630084
v 0.761890 0.028400 0.695275
v 0.613046 -0.565282 0.590044
v 0.325055 0.812321 0.532237
v 0.107419 0.069895 1.017529
v 0.236639 -0.897713 0.418507
v 0.104448 0.565839 0.849866
v 0.149531 -0.326425 0.956859
v 0.072182 -0.647848 0.783214
v -0.250897 0.355268 0.922259
v -0.455715 -0.271013 0.880609
v 0.017907 -0.989051 0.238648
v -0.071900 0.959173 0.352215
v -0.686261 -0.410095 0.638865
v -0.612135 0.595800 0.580394
v -0.811458 0.127231 0.613695
v -0.563748 0.799712 0.254330
v -0.898113 -0.388605 0.275974
v -0.434089 -0.862067 0.370681
v -0.984379 0.296973 0.048885
v -0.982742 -0.201257 -0.201036
v -0.766756 -0.610355 -0.313495
v -0.619247 0.782652 -0.181678
v -0.855470 0.409104 -0.379293
v -0.449797 -0.888420 -0.170615
v -0.710050 -0.200112 -0.703827
v -0.131744 -1.001361 -0.035153
v -0.448687 0.603344 -0.695725
v -0.444318 0.226586 -0.897395
v -0.205054 -0.208783 -0.979662
v -0.261275 -0.817340 -0.568579
v -0.239197 0.911531 -0.376026
vn 0.0766 0.0836 -0.9935
vn 0.0017 0.9659 -0.2588
vn -0.0153 -0.9464 -0.3228
vn 0.1777 0.7141 -0.6771
vn 0.3828 0.5195 -0.7639
vn 0.4144 -0.1291 -0.9009
vn 0.4728 -0.7733 -0.4225
vn 0.7636 0.2072 -0.6116
vn 0.7905 -0.4839 -0.3754
vn 0.8906 0.2379 -0.3876
vn 0.5025 0.8435 -0.1896
vn 0.1102 -0.9938 -0.0156
vn 0.9917 -0.1145 -0.0578
vn 0.4162 -0.9009 0.1229
vn 0.0684 0.9929 0.0976
vn 0.4582 0.8572 0.2349
vn 0.7543 -0.5997 0.2673
vn 0.6493 0.6945 0.3100
vn 0.5555 -0.7790 0.2907
vn 0.3574 -0.5090 0.7831
vn 0.3918 0.5750 0.7183
vn 0.4375 0.2903 0.8511
vn 0.5070 -0.2721 0.8179
vn -0.1381 -0.1642 0.9767
vn -0.0829 -0.8392 0.5375
vn -0.2452 0.0157 0.9693
vn -0.2145 0.7279 0.6513
vn -0.8546 -0.1762 0.4885
vn -0.7906 0.5650 0.2360
vn -0.9865 -0.0761 0.1451
vn -0.4469 0.8943 0.0219
vn -0.8868 -0.4616 -0.0240
vn -0.7205 -0.6866 0.0977
vn -0.6725 -0.7380 0.0554
vn -0.8171 0.5682 -0.0972
vn -0.8782 0.0440 -0.4762
vn -0.6733 0.3428 -0.6551
vn -0.5449 -0.5372 -0.6438
vn -0.4784 -0.0980 -0.8727
vn -0.1478 -0.5442 -0.8258
vn -0.0905 0.7497 -0.6555
vn 0.0593 0.1115 -0.9920
vn 0.0636 -0.9005 -0.4303
vn 0.3030 -0.4526 -0.8387
vn 0.0908 0.9773 -0.1915
vn 0.4397 -0.2444 -0.8643
vn 0.6153 0.4404 -0.6538
vn 0.5204 -0.7207 -0.4580
vn 0.7621 0.1953 -0.6173
vn 0.7513 -0.2699 -0.6022
vn 0.3553 0.8978 -0.2603
vn 0.6454 0.7254 -0.2391
vn 0.8974 -0.4159 -0.1471
vn 0.8405 0.5358 -0.0803
vn 0.9155 0.3848 -0.1172
vn 0.9854 0.0948 0.1413
vn 0.3019 -0.9466 0.1136
vn 0.9332 0.1004 0.3451
vn 0.8284 0.3018 0.4720
vn 0.7885 -0.2935 0.5404
vn 0.6631 0.6216 0.4169
vn 0.2253 0.9369 0.2675
vn 0.3323 -0.7015 0.6304
vn 0.4050 0.2417 0.8818
vn 0.4353 -0.0909 0.8957
vn 0.0032 0.3203 0.9473
vn 0.0108 0.7863 0.6177
vn -0.0826 -0.8444 0.5293
vn -0.3157 -0.6264 0.7127
vn -0.2420 0.6546 0.7162
vn -0.1518 -0.4413 0.8844
vn -0.3614 -0.6166 0.6994
vn -0.5136 0.1114 0.8508
vn -0.5492 0.2894 0.7840
vn -0.6811 -0.1249 0.7214
vn -0.3553 0.8153 0.4572
vn -0.2219 -0.9611 0.1645
vn -0.3371 0.9216 0.1926
vn -0.6991 -0.6107 0.3719
vn -0.8435 0.3854 0.3741
vn -0.9580 -0.0260 0.2855
vn -0.7797 0.6217 0.0749
vn -0.3551 -0.9332 0.0557
vn -0.9586 0.1252 -0.2558
vn -0.3908 0.9059 -0.1634
vn -0.8338 -0.3157 -0.4529
vn -0.7424 0.1682 -0.6484
vn -0.4784 0.7676 -0.4265
vn -0.6401 0.6342 -0.4336
vn -0.5079 -0.7736 -0.3788
vn -0.2177 -0.9377 -0.2706
vn -0.4272 -0.4787 -0.7671
vn -0.2345 0.4566 -0.8582
vn -0.0410 -0.4864 -0.8728
vn -0.0857 0.7448 -0.6618
vn -0.0770 0.1441 -0.9866
vt 0.737278 0.658932
vt 0.724140 0.416985
vt 0.688962 0.842991
vt 0.672210 0.560772
vt 0.639282 0.469165
vt 0.708689 0.255640
vt 0.641597 0.343624
vt 0.421875 1.000000
vt 0.122894 0.947316
vt 0.897002 0.928127
vt 0.628036 0.752995
vt 0.570561 0.659895
vt 0.569447 0.466492
vt 0.528772 0.533801
vt 0.593905 0.126343
vt 0.486296 0.768107
vt 0.463374 0.634555
vt 0.465564 0.419480
vt 0.511605 0.247527
vt 0.504607 0.898168
vt 0.375239 0.656003
vt 0.380958 0.506154
vt 0.376450 0.313955
vt 0.335502 0.784125
vt 0.268434 0.526032
vt 0.339249 0.164002
vt 0.268254 0.684455
vt 0.273750 0.403315
vt 0.265437 0.281661
vt 0.207435 0.603998
vt 0.173729 0.417206
vt 0.290795 0.087350
vt 0.236824 0.877655
vt 0.114246 0.364869
vt 0.122224 0.688287
vt 0.103467 0.533799
vt 0.065648 0.791813
vt 0.046955 0.375390
vt 0.104637 0.198077
vt 1.000000 0.125000
vt 0.012908 0.591332
vt 0.996289 0.584928
vt 0.000000 0.399333
vt 0.969422 0.438664
vt 0.000000 0.273040
vt 0.939181 0.303978
vt 0.000000 0.778595
vt 0.953505 0.778595
vt 0.927987 0.629972
vt 0.000000 0.187500
vt 0.937844 0.158424
vt 0.874808 0.437465
vt 0.515625 0.000000
vt 0.131859 0.024794
vt 0.875027 0.047436
vt 0.841801 0.702522
vt 0.819058 0.562505
vt 0.785331 0.439943
vt 0.816692 0.211788
vt 0.839606 0.853366
s 0
f 1/1/1 4/4/1 48/58/1
f 50/60/2 8/10/2 3/3/2
f 49/59/3 13/15/3 45/55/3
f 3/3/4 9/11/4 1/1/4
f 9/11/5 4/4/5 1/1/5
f 4/4/6 5/5/6 2/2/6
f 7/7/7 17/19/7 6/6/7
f 4/4/8 10/12/8 11/13/8
f 7/7/9 11/13/9 17/19/9
f 11/13/10 10/12/10 12/14/10
f 9/11/11 18/20/11 14/16/11
f 45/53/12 13/15/12 30/32/12
f 12/14/13 16/18/13 11/13/13
f 13/15/14 17/19/14 24/26/14
f 18/20/15 8/8/15 31/33/15
f 18/20/16 22/24/16 14/16/16
f 16/18/17 21/23/17 17/19/17
f 15/17/18 22/24/18 19/21/18
f 17/19/19 21/23/19 24/26/19
f 21/23/20 26/28/20 27/29/20
f 19/21/21 22/24/21 25/27/21
f 20/22/22 25/27/22 23/25/22
f 20/22/23 26/28/23 21/23/23
f 23/25/24 29/31/24 26/28/24
f 24/26/25 27/29/25 37/39/25
f 23/25/26 28/30/26 29/31/26
f 31/33/27 33/35/27 25/27/27
f 34/36/28 36/38/28 32/34/28
f 33/35/29 35/37/29 38/41/29
f 38/41/30 39/43/30 36/38/30
f 35/37/31 8/9/31 41/47/31
f 36/38/32 39/43/32 40/45/32
f 36/38/33 40/45/33 37/39/33
f 37/39/34 40/45/34 43/50/34
f 38/42/35 41/48/35 42/49/35
f 39/44/36 42/49/36 44/52/36
f 42/49/37 46/56/37 47/57/37
f 40/46/38 44/52/38 49/59/38
f 47/57/39 48/58/39 44/52/39
f 49/59/40 48/58/40 6/6/40
f 46/56/41 3/3/41 1/1/41
f 48/58/42 4/4/42 2/2/42
f 49/59/43 6/6/43 13/15/43
f 6/6/44 2/2/44 7/7/44
f 8/10/45 18/20/45 3/3/45
f 2/2/46 5/5/46 7/7/46
f 9/11/47 10/12/47 4/4/47
f 13/15/48 6/6/48 17/19/48
f 5/5/49 4/4/49 11/13/49
f 5/5/50 11/13/50 7/7/50
f 9/11/51 3/3/51 18/20/51
f 10/12/52 9/11/52 14/16/52
f 17/19/53 11/13/53 16/18/53
f 10/12/54 14/16/54 15/17/54
f 12/14/55 10/12/55 15/17/55
f 16/18/56 12/14/56 15/17/56
f 13/15/57 24/26/57 30/32/57
f 16/18/58 15/17/58 20/22/58
f 20/22/59 15/17/59 19/21/59
f 16/18/60 20/22/60 21/23/60
f 15/17/61 14/16/61 22/24/61
f 22/24/62 18/20/62 31/33/62
f 24/26/63 21/23/63 27/29/63
f 20/22/64 19/21/64 25/27/64
f 20/22/65 23/25/65 26/28/65
f 23/25/66 25/27/66 28/30/66
f 22/24/67 31/33/67 25/27/67
f 24/26/68 37/39/68 30/32/68
f 27/29/69 29/31/69 37/39/69
f 25/27/70 33/35/70 28/30/70
f 27/29/71 26/28/71 29/31/71
f 29/31/72 32/34/72 37/39/72
f 29/31/73 28/30/73 34/36/73
f 34/36/74 28/30/74 33/35/74
f 29/31/75 34/36/75 32/34/75
f 31/33/76 35/37/76 33/35/76
f 30/32/77 37/39/77 45/54/77
f 31/33/78 8/9/78 35/37/78
f 32/34/79 36/38/79 37/39/79
f 34/36/80 33/35/80 38/41/80
f 34/36/81 38/41/81 36/38/81
f 38/41/82 35/37/82 41/47/82
f 37/40/83 43/51/83 45/55/83
f 39/44/84 38/42/84 42/49/84
f 41/48/85 8/10/85 50/60/85
f 39/44/86 44/52/86 40/46/86
f 44/52/87 42/49/87 47/57/87
f 41/48/88 50/60/88 46/56/88
f 42/49/89 41/48/89 46/56/89
f 43/51/90 40/46/90 49/59/90
f 45/55/91 43/51/91 49/59/91
f 49/59/92 44/52/92 48/58/92
f 46/56/93 1/1/93 47/57/93
f 48/58/94 2/2/94 6/6/94
f 46/56/95 50/60/95 3/3/95
f 48/58/96 47/57/96 1/1/96
